<mxfile host="Electron" modified="2023-09-10T15:03:57.796Z" agent="Mozilla/5.0 (X11; Linux x86_64) AppleWebKit/537.36 (KHTML, like Gecko) draw.io/21.6.8 Chrome/114.0.5735.289 Electron/25.5.0 Safari/537.36" etag="od2XZvIKFzcRqQUiIN1j" version="21.6.8" type="device" pages="2">
  <diagram id="BX_Vzg-N9muS21YvldbL" name="current">
    <mxGraphModel dx="1434" dy="27" grid="1" gridSize="10" guides="1" tooltips="1" connect="1" arrows="1" fold="1" page="1" pageScale="1" pageWidth="1169" pageHeight="827" math="0" shadow="0">
      <root>
        <mxCell id="0" />
        <mxCell id="1" parent="0" />
        <mxCell id="KB0QdkBeM-TQgMLD0m6j-1" value="Problem" style="rounded=0;whiteSpace=wrap;html=1;dashed=1;fillColor=none;container=1;collapsible=0;recursiveResize=0;verticalAlign=bottom;" vertex="1" parent="1">
          <mxGeometry x="910" y="1050" width="170" height="360" as="geometry" />
        </mxCell>
        <mxCell id="KB0QdkBeM-TQgMLD0m6j-4" value="" style="endArrow=block;endSize=16;endFill=0;html=1;rounded=1;dashed=1;" edge="1" parent="KB0QdkBeM-TQgMLD0m6j-1" source="KB0QdkBeM-TQgMLD0m6j-3">
          <mxGeometry x="-0.2121" width="160" relative="1" as="geometry">
            <mxPoint x="345" y="230" as="sourcePoint" />
            <mxPoint x="80" y="160" as="targetPoint" />
            <mxPoint as="offset" />
          </mxGeometry>
        </mxCell>
        <mxCell id="rUsk9ZJCrHTNMhJmQcXi-1" value="Task" style="rounded=1;whiteSpace=wrap;html=1;" vertex="1" parent="1">
          <mxGeometry x="120" y="1200.5" width="120" height="40" as="geometry" />
        </mxCell>
        <mxCell id="rUsk9ZJCrHTNMhJmQcXi-2" value="Environment" style="rounded=1;whiteSpace=wrap;html=1;" vertex="1" parent="1">
          <mxGeometry x="120" y="1040" width="120" height="40" as="geometry" />
        </mxCell>
        <mxCell id="rUsk9ZJCrHTNMhJmQcXi-3" value="Agent" style="rounded=1;whiteSpace=wrap;html=1;" vertex="1" parent="1">
          <mxGeometry x="120" y="1120" width="120" height="40" as="geometry" />
        </mxCell>
        <mxCell id="rUsk9ZJCrHTNMhJmQcXi-4" value="Given" style="rounded=1;whiteSpace=wrap;html=1;" vertex="1" parent="1">
          <mxGeometry x="120" y="960" width="80" height="40" as="geometry" />
        </mxCell>
        <mxCell id="rUsk9ZJCrHTNMhJmQcXi-5" value="BDD Scenario" style="rounded=1;whiteSpace=wrap;html=1;" vertex="1" parent="1">
          <mxGeometry x="280" y="880" width="120" height="40" as="geometry" />
        </mxCell>
        <mxCell id="rUsk9ZJCrHTNMhJmQcXi-6" value="When" style="rounded=1;whiteSpace=wrap;html=1;" vertex="1" parent="1">
          <mxGeometry x="300" y="960" width="80" height="40" as="geometry" />
        </mxCell>
        <mxCell id="rUsk9ZJCrHTNMhJmQcXi-7" value="Event" style="rounded=1;whiteSpace=wrap;html=1;" vertex="1" parent="1">
          <mxGeometry x="300" y="1040" width="120" height="40" as="geometry" />
        </mxCell>
        <mxCell id="rUsk9ZJCrHTNMhJmQcXi-8" value="Behaviour/Action" style="rounded=1;whiteSpace=wrap;html=1;" vertex="1" parent="1">
          <mxGeometry x="300" y="1120" width="120" height="40" as="geometry" />
        </mxCell>
        <mxCell id="rUsk9ZJCrHTNMhJmQcXi-9" value="Then" style="rounded=1;whiteSpace=wrap;html=1;" vertex="1" parent="1">
          <mxGeometry x="480" y="960" width="80" height="40" as="geometry" />
        </mxCell>
        <mxCell id="rUsk9ZJCrHTNMhJmQcXi-11" value="Acceptance Criteria" style="rounded=1;whiteSpace=wrap;html=1;" vertex="1" parent="1">
          <mxGeometry x="480" y="1040" width="120" height="40" as="geometry" />
        </mxCell>
      </root>
    </mxGraphModel>
  </diagram>
  <diagram id="mAtDTH9jztoGimr2KxhU" name="20220629">
    <mxGraphModel dx="1434" dy="53" grid="1" gridSize="10" guides="1" tooltips="1" connect="1" arrows="1" fold="1" page="1" pageScale="1" pageWidth="1169" pageHeight="827" math="0" shadow="0">
      <root>
        <mxCell id="0" />
        <mxCell id="1" parent="0" />
        <mxCell id="81e_T-nPBUE58qsKg9bM-14" value="Solution" style="rounded=0;whiteSpace=wrap;html=1;dashed=1;fillColor=none;container=1;collapsible=0;recursiveResize=0;verticalAlign=bottom;" parent="1" vertex="1">
          <mxGeometry x="630" y="1090" width="160" height="240" as="geometry" />
        </mxCell>
        <mxCell id="wlTsV_-Qww80ay_fpTEG-28" value="&lt;p style=&quot;margin: 4px 0px 0px;&quot;&gt;System&lt;/p&gt;" style="verticalAlign=top;align=center;overflow=fill;fontSize=12;fontFamily=Helvetica;html=1;fontStyle=1" parent="81e_T-nPBUE58qsKg9bM-14" vertex="1">
          <mxGeometry x="15" y="20" width="130" height="60" as="geometry" />
        </mxCell>
        <mxCell id="1aCn9zrLhWK4kAYQOWdR-1" value="&lt;p style=&quot;margin: 4px 0px 0px;&quot;&gt;&lt;b&gt;Feature&lt;/b&gt;&lt;/p&gt;" style="verticalAlign=top;align=center;overflow=fill;fontSize=12;fontFamily=Helvetica;html=1;horizontal=1;" parent="81e_T-nPBUE58qsKg9bM-14" vertex="1">
          <mxGeometry x="15" y="126" width="130" height="40" as="geometry" />
        </mxCell>
        <mxCell id="wlTsV_-Qww80ay_fpTEG-16" value="" style="endArrow=none;html=1;endSize=12;startArrow=none;startSize=14;startFill=0;edgeStyle=orthogonalEdgeStyle;rounded=1;endFill=0;" parent="1" source="wlTsV_-Qww80ay_fpTEG-12" target="wlTsV_-Qww80ay_fpTEG-13" edge="1">
          <mxGeometry y="10" relative="1" as="geometry">
            <mxPoint x="180" y="1501" as="sourcePoint" />
            <mxPoint x="340" y="1501" as="targetPoint" />
            <Array as="points">
              <mxPoint x="380" y="1110" />
              <mxPoint x="380" y="1110" />
            </Array>
            <mxPoint as="offset" />
          </mxGeometry>
        </mxCell>
        <mxCell id="wlTsV_-Qww80ay_fpTEG-17" value="1..*" style="edgeLabel;resizable=0;html=1;align=left;verticalAlign=top;" parent="wlTsV_-Qww80ay_fpTEG-16" connectable="0" vertex="1">
          <mxGeometry x="-1" relative="1" as="geometry">
            <mxPoint x="5" y="-20" as="offset" />
          </mxGeometry>
        </mxCell>
        <mxCell id="wlTsV_-Qww80ay_fpTEG-18" value="1..*" style="edgeLabel;resizable=0;html=1;align=right;verticalAlign=top;" parent="wlTsV_-Qww80ay_fpTEG-16" connectable="0" vertex="1">
          <mxGeometry x="1" relative="1" as="geometry">
            <mxPoint x="-10" as="offset" />
          </mxGeometry>
        </mxCell>
        <mxCell id="wlTsV_-Qww80ay_fpTEG-27" value="1" style="endArrow=open;html=1;endSize=12;startArrow=diamondThin;startSize=14;startFill=0;edgeStyle=orthogonalEdgeStyle;align=left;verticalAlign=bottom;rounded=1;" parent="1" source="wlTsV_-Qww80ay_fpTEG-11" target="wlTsV_-Qww80ay_fpTEG-28" edge="1">
          <mxGeometry x="-1" y="3" relative="1" as="geometry">
            <mxPoint x="620" y="1089.5" as="sourcePoint" />
            <mxPoint x="780" y="1089.5" as="targetPoint" />
          </mxGeometry>
        </mxCell>
        <mxCell id="81e_T-nPBUE58qsKg9bM-7" value="Problem" style="rounded=0;whiteSpace=wrap;html=1;dashed=1;fillColor=none;container=1;collapsible=0;recursiveResize=0;verticalAlign=bottom;" parent="1" vertex="1">
          <mxGeometry x="190" y="970" width="170" height="360" as="geometry" />
        </mxCell>
        <mxCell id="wlTsV_-Qww80ay_fpTEG-12" value="&lt;p style=&quot;margin: 4px 0px 0px;&quot;&gt;Requirement&lt;/p&gt;" style="verticalAlign=top;align=center;overflow=fill;fontSize=12;fontFamily=Helvetica;html=1;fontStyle=1" parent="81e_T-nPBUE58qsKg9bM-7" vertex="1">
          <mxGeometry x="15" y="120" width="130" height="40" as="geometry" />
        </mxCell>
        <mxCell id="A2zfF8eE-_pnJt-BCeWU-1" value="&lt;p style=&quot;margin: 4px 0px 0px;&quot;&gt;UserStory&lt;/p&gt;" style="verticalAlign=top;align=center;overflow=fill;fontSize=12;fontFamily=Helvetica;html=1;fontStyle=1" parent="81e_T-nPBUE58qsKg9bM-7" vertex="1">
          <mxGeometry x="15" y="220" width="130" height="60" as="geometry" />
        </mxCell>
        <mxCell id="A2zfF8eE-_pnJt-BCeWU-2" value="" style="endArrow=block;endSize=16;endFill=0;html=1;rounded=1;dashed=1;" parent="81e_T-nPBUE58qsKg9bM-7" source="A2zfF8eE-_pnJt-BCeWU-1" target="wlTsV_-Qww80ay_fpTEG-12" edge="1">
          <mxGeometry x="-0.2121" width="160" relative="1" as="geometry">
            <mxPoint x="345" y="230" as="sourcePoint" />
            <mxPoint x="345" y="170" as="targetPoint" />
            <mxPoint as="offset" />
          </mxGeometry>
        </mxCell>
        <mxCell id="81e_T-nPBUE58qsKg9bM-8" value="Test" style="rounded=0;whiteSpace=wrap;html=1;dashed=1;fillColor=none;container=1;collapsible=0;recursiveResize=0;verticalAlign=bottom;" parent="1" vertex="1">
          <mxGeometry x="410" y="970" width="200" height="360" as="geometry" />
        </mxCell>
        <mxCell id="wlTsV_-Qww80ay_fpTEG-1" value="BDDScenario" style="swimlane;fontStyle=1;childLayout=stackLayout;horizontal=1;startSize=26;fillColor=none;horizontalStack=0;resizeParent=1;resizeParentMax=0;resizeLast=0;collapsible=0;marginBottom=0;" parent="81e_T-nPBUE58qsKg9bM-8" vertex="1">
          <mxGeometry x="30" y="220" width="130" height="104" as="geometry" />
        </mxCell>
        <mxCell id="wlTsV_-Qww80ay_fpTEG-2" value="+ given" style="text;strokeColor=none;fillColor=none;align=left;verticalAlign=top;spacingLeft=4;spacingRight=4;overflow=hidden;rotatable=0;points=[[0,0.5],[1,0.5]];portConstraint=eastwest;" parent="wlTsV_-Qww80ay_fpTEG-1" vertex="1">
          <mxGeometry y="26" width="130" height="26" as="geometry" />
        </mxCell>
        <mxCell id="wlTsV_-Qww80ay_fpTEG-3" value="+ when" style="text;strokeColor=none;fillColor=none;align=left;verticalAlign=top;spacingLeft=4;spacingRight=4;overflow=hidden;rotatable=0;points=[[0,0.5],[1,0.5]];portConstraint=eastwest;" parent="wlTsV_-Qww80ay_fpTEG-1" vertex="1">
          <mxGeometry y="52" width="130" height="26" as="geometry" />
        </mxCell>
        <mxCell id="wlTsV_-Qww80ay_fpTEG-4" value="+ then" style="text;strokeColor=none;fillColor=none;align=left;verticalAlign=top;spacingLeft=4;spacingRight=4;overflow=hidden;rotatable=0;points=[[0,0.5],[1,0.5]];portConstraint=eastwest;" parent="wlTsV_-Qww80ay_fpTEG-1" vertex="1">
          <mxGeometry y="78" width="130" height="26" as="geometry" />
        </mxCell>
        <mxCell id="wlTsV_-Qww80ay_fpTEG-11" value="&lt;p style=&quot;margin: 4px 0px 0px;&quot;&gt;Test&lt;/p&gt;" style="verticalAlign=top;align=center;overflow=fill;fontSize=12;fontFamily=Helvetica;html=1;fontStyle=1" parent="81e_T-nPBUE58qsKg9bM-8" vertex="1">
          <mxGeometry x="30" y="20" width="130" height="40" as="geometry" />
        </mxCell>
        <mxCell id="wlTsV_-Qww80ay_fpTEG-23" value="" style="endArrow=block;endSize=16;endFill=0;html=1;rounded=1;dashed=1;" parent="81e_T-nPBUE58qsKg9bM-8" source="wlTsV_-Qww80ay_fpTEG-1" target="wlTsV_-Qww80ay_fpTEG-13" edge="1">
          <mxGeometry x="-0.2121" width="160" relative="1" as="geometry">
            <mxPoint x="-420" y="-180" as="sourcePoint" />
            <mxPoint x="-420" y="-89" as="targetPoint" />
            <mxPoint as="offset" />
          </mxGeometry>
        </mxCell>
        <mxCell id="wlTsV_-Qww80ay_fpTEG-13" value="&lt;p style=&quot;margin: 4px 0px 0px;&quot;&gt;Acceptance Criteria&lt;/p&gt;" style="verticalAlign=top;align=center;overflow=fill;fontSize=12;fontFamily=Helvetica;html=1;fontStyle=1" parent="81e_T-nPBUE58qsKg9bM-8" vertex="1">
          <mxGeometry x="30" y="120" width="130" height="40" as="geometry" />
        </mxCell>
        <mxCell id="81e_T-nPBUE58qsKg9bM-2" value="" style="endArrow=none;html=1;endSize=12;startArrow=none;startSize=14;startFill=0;edgeStyle=orthogonalEdgeStyle;rounded=1;endFill=0;" parent="81e_T-nPBUE58qsKg9bM-8" source="wlTsV_-Qww80ay_fpTEG-11" target="wlTsV_-Qww80ay_fpTEG-13" edge="1">
          <mxGeometry y="10" relative="1" as="geometry">
            <mxPoint x="50" y="59" as="sourcePoint" />
            <mxPoint x="40" y="219" as="targetPoint" />
            <Array as="points" />
            <mxPoint as="offset" />
          </mxGeometry>
        </mxCell>
        <mxCell id="81e_T-nPBUE58qsKg9bM-3" value="1..*" style="edgeLabel;resizable=0;html=1;align=left;verticalAlign=top;labelBackgroundColor=none;" parent="81e_T-nPBUE58qsKg9bM-2" connectable="0" vertex="1">
          <mxGeometry x="-1" relative="1" as="geometry">
            <mxPoint x="10" as="offset" />
          </mxGeometry>
        </mxCell>
        <mxCell id="81e_T-nPBUE58qsKg9bM-4" value="1..*" style="edgeLabel;resizable=0;html=1;align=right;verticalAlign=top;labelBackgroundColor=none;" parent="81e_T-nPBUE58qsKg9bM-2" connectable="0" vertex="1">
          <mxGeometry x="1" relative="1" as="geometry">
            <mxPoint x="-5" y="-20" as="offset" />
          </mxGeometry>
        </mxCell>
        <mxCell id="81e_T-nPBUE58qsKg9bM-6" value="tests" style="edgeLabel;resizable=0;html=1;align=left;verticalAlign=top;labelBackgroundColor=none;" parent="81e_T-nPBUE58qsKg9bM-8" connectable="0" vertex="1">
          <mxGeometry x="60" y="60" as="geometry" />
        </mxCell>
        <mxCell id="81e_T-nPBUE58qsKg9bM-5" value="tested by" style="edgeLabel;resizable=0;html=1;align=right;verticalAlign=top;labelBackgroundColor=none;" parent="81e_T-nPBUE58qsKg9bM-8" connectable="0" vertex="1">
          <mxGeometry x="130" y="100" as="geometry">
            <mxPoint x="18" y="-1" as="offset" />
          </mxGeometry>
        </mxCell>
        <mxCell id="wlTsV_-Qww80ay_fpTEG-21" value="satisfies" style="edgeLabel;resizable=0;html=1;align=right;verticalAlign=top;" parent="81e_T-nPBUE58qsKg9bM-8" connectable="0" vertex="1">
          <mxGeometry x="30" y="120" as="geometry" />
        </mxCell>
        <mxCell id="wlTsV_-Qww80ay_fpTEG-20" value="satisfied_by" style="edgeLabel;resizable=0;html=1;align=left;verticalAlign=top;" parent="1" connectable="0" vertex="1">
          <mxGeometry x="335" y="1110" as="geometry" />
        </mxCell>
        <mxCell id="1aCn9zrLhWK4kAYQOWdR-2" value="" style="endArrow=open;html=1;endSize=12;startArrow=diamondThin;startSize=14;startFill=0;edgeStyle=orthogonalEdgeStyle;rounded=1;" parent="1" edge="1">
          <mxGeometry relative="1" as="geometry">
            <mxPoint x="730" y="1010" as="sourcePoint" />
            <mxPoint x="830" y="1040" as="targetPoint" />
          </mxGeometry>
        </mxCell>
        <mxCell id="1aCn9zrLhWK4kAYQOWdR-3" value="1" style="edgeLabel;resizable=0;html=1;align=left;verticalAlign=top;labelBackgroundColor=none;" parent="1aCn9zrLhWK4kAYQOWdR-2" connectable="0" vertex="1">
          <mxGeometry x="-1" relative="1" as="geometry">
            <mxPoint x="10" as="offset" />
          </mxGeometry>
        </mxCell>
        <mxCell id="1aCn9zrLhWK4kAYQOWdR-4" value="1..*" style="edgeLabel;resizable=0;html=1;align=right;verticalAlign=top;labelBackgroundColor=none;" parent="1aCn9zrLhWK4kAYQOWdR-2" connectable="0" vertex="1">
          <mxGeometry x="1" relative="1" as="geometry">
            <mxPoint x="30" y="-20" as="offset" />
          </mxGeometry>
        </mxCell>
        <mxCell id="1aCn9zrLhWK4kAYQOWdR-5" value="item delivery (problem)&amp;nbsp;" style="shape=note;whiteSpace=wrap;html=1;backgroundOutline=1;darkOpacity=0.05;size=22;" parent="1" vertex="1">
          <mxGeometry x="90" y="890" width="120" height="70" as="geometry" />
        </mxCell>
        <mxCell id="1aCn9zrLhWK4kAYQOWdR-6" value="task oriented grasping" style="shape=note;whiteSpace=wrap;html=1;backgroundOutline=1;darkOpacity=0.05;size=19;" parent="1" vertex="1">
          <mxGeometry x="290" y="850" width="120" height="70" as="geometry" />
        </mxCell>
        <mxCell id="1aCn9zrLhWK4kAYQOWdR-7" value="correct orientation" style="shape=note;whiteSpace=wrap;html=1;backgroundOutline=1;darkOpacity=0.05;size=19;" parent="1" vertex="1">
          <mxGeometry x="460" y="900" width="120" height="50" as="geometry" />
        </mxCell>
        <mxCell id="1aCn9zrLhWK4kAYQOWdR-8" value="correct position" style="shape=note;whiteSpace=wrap;html=1;backgroundOutline=1;darkOpacity=0.05;size=19;" parent="1" vertex="1">
          <mxGeometry x="460" y="850" width="120" height="40" as="geometry" />
        </mxCell>
        <mxCell id="1aCn9zrLhWK4kAYQOWdR-9" value="no uncontrolled collision" style="shape=note;whiteSpace=wrap;html=1;backgroundOutline=1;darkOpacity=0.05;size=19;" parent="1" vertex="1">
          <mxGeometry x="60" y="1030" width="120" height="60" as="geometry" />
        </mxCell>
        <mxCell id="1aCn9zrLhWK4kAYQOWdR-10" value="Assumptions that may need to be specified by tester (task, system, environment):&lt;br&gt;- object hard/soft&lt;br&gt;- end-effector type: gripper/hand/suction&lt;br&gt;- mobile/stationary robots&lt;br&gt;&lt;br&gt;These assumptions influence what is &quot;acceptable&quot; for requirements" style="shape=note;whiteSpace=wrap;html=1;backgroundOutline=1;darkOpacity=0.05;size=19;align=left;strokeColor=default;dashed=1;verticalAlign=top;spacing=3;spacingTop=0;spacingLeft=3;fillColor=default;strokeWidth=1;dashPattern=1 1;" parent="1" vertex="1">
          <mxGeometry x="880" y="1350" width="270" height="210" as="geometry" />
        </mxCell>
      </root>
    </mxGraphModel>
  </diagram>
</mxfile>
